<?xml version="1.0" encoding="utf-8"?>
<!-- Generator: Adobe Illustrator 27.2.0, SVG Export Plug-In . SVG Version: 6.00 Build 0)  -->
<svg version="1.1" id="レイヤー_1" xmlns="http://www.w3.org/2000/svg" xmlns:xlink="http://www.w3.org/1999/xlink" x="0px"
	 y="0px" viewBox="0 0 100 100" style="enable-background:new 0 0 100 100;" xml:space="preserve">
<style type="text/css">
	.st0{fill:none;}
	.st1{fill:#67571C;}
</style>
<g transform="translate(-271 -334)">
	<rect x="271" y="334" class="st0" width="100" height="100"/>
	<g transform="translate(267.6 329.2)">
		<path class="st1" d="M53.4,28.8c-14.3,0-25.8,11.6-25.8,25.8s11.6,25.8,25.8,25.8c14.3,0,25.8-11.6,25.8-25.8
			C79.2,40.4,67.6,28.8,53.4,28.8z M53.4,71.1c-9.1,0-16.5-7.4-16.5-16.5c0-9.1,7.4-16.5,16.5-16.5c9.1,0,16.5,7.4,16.5,16.5
			C69.9,63.7,62.5,71.1,53.4,71.1z"/>
		<circle class="st1" cx="80.2" cy="28.2" r="5.8"/>
		<path class="st1" d="M95.3,13.1c-5.2-5.4-12.7-8.3-21.2-8.3H32.6C15.1,4.8,3.4,16.5,3.4,34v41.3c0,8.7,2.8,16.1,8.5,21.6
			c5.4,5.2,12.7,7.9,21,7.9H74c8.7,0,15.9-2.8,21.2-7.9c5.4-5.2,8.3-12.7,8.3-21.4V34C103.4,25.6,100.6,18.3,95.3,13.1z M94.5,75.6
			c0,6.2-2.2,11.3-5.8,14.7S80,95.5,74,95.5H32.8c-6,0-11.1-1.8-14.7-5.2c-3.6-3.6-5.4-8.7-5.4-14.9V34c0-6,1.8-11.1,5.4-14.7
			c3.4-3.4,8.7-5.2,14.7-5.2h41.5c6,0,11.1,1.8,14.7,5.4c3.6,4,5.6,9.2,5.4,14.5L94.5,75.6L94.5,75.6z"/>
	</g>
</g>
</svg>
