<svg width="226" height="41" viewBox="0 0 226 41" fill="none" xmlns="http://www.w3.org/2000/svg">
<path d="M61.5029 25.5876C57.0553 24.7115 57.7205 17.8746 60.086 15.6017C62.4515 13.3289 68.6363 13.0838 70.0716 17.36" fill="#F9ED58"/>
<path d="M111.599 12.4872C113.169 8.04719 113.294 4.04668 111.878 3.5518C110.463 3.05691 108.043 6.25506 106.473 10.6951C104.904 15.135 104.779 19.1356 106.194 19.6304C107.61 20.1253 110.029 16.9272 111.599 12.4872Z" fill="#D5F671"/>
<path d="M207.367 24.7815C208.754 21.0134 207.887 17.2335 205.43 16.3389C202.974 15.4443 199.857 17.7738 198.47 21.5419C197.083 25.3101 197.95 29.09 200.407 29.9845C202.863 30.8791 205.98 28.5497 207.367 24.7815Z" fill="#F9ED58"/>
<path d="M55.8849 24.3563C54.2464 27.2785 51.4743 29.9128 47.5688 29.8699C46.0965 29.8699 44.7536 28.8285 44.0822 27.45C43.2444 23.8171 43.3245 19.9331 43.577 16.049C42.3204 16.3431 41.1007 16.8025 39.7947 17.1762C39.2465 17.1762 38.7044 16.9251 38.4518 16.3798C38.4087 16.0858 38.6182 15.7121 39.0432 15.7549C39.3389 15.7978 39.7147 15.7978 39.9241 15.6692C40.8481 15.418 42.7393 14.836 43.6633 14.5419L44.3779 8.06644C44.421 7.7295 44.5011 7.31291 44.6735 7.01885C44.9692 6.51649 45.4682 6.55937 45.807 6.81055C46.1458 6.97596 46.3553 7.31291 46.6078 7.60697L46.8173 7.85815C47.0267 8.10933 47.2361 8.3605 47.4025 8.64844C47.5688 8.89962 47.7413 9.19368 47.9076 9.65315C47.1129 9.56739 46.8173 9.1508 46.269 8.73421C46.1458 8.60556 46.0164 8.52591 45.8932 8.48303C45.807 8.60556 45.77 8.85673 45.6838 9.19368L45.5606 10.7375C45.4744 11.9873 45.2649 13.3289 45.1417 14.1621C46.1089 14.0763 47.1561 13.868 48.1663 13.7455C49.1766 13.6597 50.1807 13.6597 51.2341 13.9967C51.5729 14.2479 51.3203 14.7502 51.0677 14.8728C50.23 14.9156 49.1335 15.0014 48.0431 15.1239C46.9959 15.2526 45.8994 15.418 45.0185 15.7059C44.7228 19.0876 44.6859 23.0575 45.2711 26.3963C45.4374 27.4439 46.5277 28.3996 47.4949 28.4425C50.8152 28.6508 53.2915 26.7333 54.7576 24.3501C55.0533 23.8907 55.3059 23.4741 55.5954 23.0146C55.848 22.5551 56.1005 22.1385 56.31 21.6791C56.3962 21.4708 56.6057 21.5504 56.6858 21.5933C56.7658 21.6362 56.8952 21.7587 56.8952 21.8874C56.8952 22.3468 56.7289 22.7634 56.5564 23.18C56.347 23.6027 56.0944 24.0193 55.8849 24.3563Z" fill="#936969" stroke="#67571C" stroke-width="0.75" stroke-miterlimit="10"/>
<path d="M68.4391 28.32C67.3056 29.1961 66.0428 29.821 64.743 29.9496C63.357 30.0721 62.0141 29.6127 61.1332 28.6937C60.628 28.1485 60.2954 27.689 60.086 27.2295C59.8765 26.8558 59.7533 26.4331 59.6239 26.0165C59.2913 26.2677 58.8293 26.5189 58.5336 26.5985C58.0716 26.7272 57.6958 26.7272 57.1476 26.476C56.9813 26.3106 56.8149 25.9308 57.0244 25.5999C57.2769 25.4774 57.5295 25.3917 57.7821 25.3488C58.0346 25.263 58.2441 25.2262 58.4104 25.1405C58.7061 25.018 59.125 24.7239 59.4576 24.5585C59.3283 22.6777 59.3283 20.6744 59.7533 18.7936C60.049 17.3295 60.7204 15.8714 61.7245 14.7442C62.6486 13.9906 64.4103 13.4883 65.5438 13.8681C67.0161 14.3705 68.1064 15.9143 68.6916 17.2498C68.8579 18.1259 68.4822 18.8365 68.0202 19.3818C67.6444 19.7983 67.1824 20.2578 66.7204 20.6744L66.0921 21.2564C65.9257 21.4218 65.7163 21.6301 65.5869 21.8016C64.9155 22.4265 64.1147 23.0514 63.32 23.6395C62.5192 24.2215 61.7245 24.7668 61.01 25.2262C61.2194 26.3964 61.5952 27.5665 62.6917 28.1914C63.7019 28.7795 64.7492 28.6937 65.7163 28.32C66.6403 27.9831 67.5212 27.444 68.1927 26.8558C69.4493 25.7715 70.5027 24.5585 71.0078 23.1372C71.2173 22.9289 71.5992 23.3455 71.5992 23.5109C71.5561 24.3073 71.0509 25.3059 70.6321 25.9737C70.0345 26.862 69.2768 27.6523 68.4391 28.32ZM62.6424 15.9204C61.9709 16.7965 61.5521 17.8012 61.2564 18.9284C60.8375 20.3926 60.7944 21.9793 60.8806 23.566C61.6753 23.0208 62.5192 22.4388 63.357 21.8139C64.281 21.1461 65.1188 20.3926 65.8333 19.6452C66.3816 19.1 67.1762 18.518 67.3056 17.6848C66.9298 16.8516 66.3385 15.9694 65.5438 15.4303C64.6999 15.124 63.3138 15.2894 62.6424 15.9204Z" fill="#936969" stroke="#67571C" stroke-width="0.75" stroke-miterlimit="10"/>
<path d="M83.4331 24.1847C83.1374 23.3087 82.928 22.3897 82.7185 21.4708C81.5851 24.3134 80.0697 27.2356 77.427 29.3247C76.5892 29.9925 75.2833 30.2436 74.3593 29.6616C73.3121 29.0368 72.85 28.032 72.6776 26.9048C72.5112 25.4835 72.7638 23.8539 73.0965 22.647C73.9342 19.4736 75.7022 16.5514 78.4311 14.254C78.8069 14.0457 79.1888 13.8374 79.5646 13.7088C79.9835 13.5862 80.4023 13.5862 80.8212 13.7945C81.8315 14.254 82.5399 15.1301 82.9218 16.1348C83.3407 16.7168 83.3407 17.599 83.427 18.3035C83.5933 18.5976 83.6795 18.8487 83.8027 19.2224C83.969 20.7234 84.3078 22.065 84.7267 23.4435C85.4413 25.655 85.8602 27.3704 87.585 29.0429C87.6281 29.5881 86.9567 29.5024 86.5748 29.4166C84.7329 28.0749 84.1415 26.1942 83.4331 24.1847ZM80.4886 15.1668C80.0697 15.0382 79.7309 15.1668 79.3982 15.3751C78.0985 16.2512 76.9219 17.8379 76.1642 19.1367C75.2402 20.8091 74.6118 22.6041 74.2299 24.4849C74.1868 25.1098 74.1067 25.7776 74.1437 26.4086C74.1868 27.0335 74.3531 27.5787 74.6919 28.0382C75.0677 28.4119 75.7453 28.4976 76.2443 28.3322C79.2258 26.0349 80.9444 22.8615 82.0409 19.6023C82.1272 19.1428 82.1641 18.6404 82.4598 18.2238C82.3305 17.8073 82.0409 17.0537 81.7884 16.5943C81.4557 16 81.0368 15.4609 80.4886 15.1668Z" fill="#936969" stroke="#67571C" stroke-width="0.75" stroke-miterlimit="10"/>
<path d="M110.685 29.9497C109.256 29.9069 107.957 29.043 107.033 28.02C106.441 27.3522 106.065 26.7212 105.77 26.0473C105.474 25.4163 105.265 24.7853 105.012 24.0379C103.835 25.3366 102.449 26.5987 100.983 27.5482C100.731 27.7014 100.312 27.7443 100.016 27.5482C99.7636 27.3951 99.7205 26.9969 99.9299 26.7641L102.449 24.5954C103.287 23.8847 104.045 23.0577 104.673 22.2306C104.297 18.4078 104.211 14.4257 105.092 10.8051C105.72 8.31779 106.854 5.99593 108.622 3.99263C109.041 3.5209 109.965 3.47802 110.427 3.87623C111.308 5.05248 111.437 6.59018 111.48 7.93183C111.523 9.51242 111.351 10.9644 111.061 12.4224C110.26 16.1656 108.375 19.5167 106.145 22.7023C106.398 24.0807 106.817 25.5388 107.661 26.7212C108.246 27.5911 109.09 28.3018 110.18 28.651C111.314 28.8899 112.071 28.651 112.995 28.1364C113.833 27.6217 114.844 26.4455 115.349 25.5756C115.435 25.3366 115.601 25.0242 115.897 25.0242C116.149 25.2631 116.149 25.4592 116.106 25.6552C116.106 25.8084 116.02 25.9676 115.983 26.1269C115.478 27.1929 114.683 28.2528 113.673 28.9634C112.786 29.5515 111.899 29.9865 110.685 29.9436V29.9497ZM105.382 11.9691C104.599 15.0996 104.71 18.4078 105.061 21.6241C107.408 18.7876 109.256 15.6693 110.156 12.3673C110.79 9.93513 110.821 7.39272 110.076 4.78904C109.94 4.40921 109.343 4.34183 109.115 4.56237C107.106 6.78009 106.004 9.31638 105.382 11.9691Z" fill="#936969" stroke="#67571C" stroke-width="0.75" stroke-miterlimit="10"/>
<path d="M125.131 29.87C124.626 29.9129 123.745 29.87 123.369 29.5331C122.698 28.9511 122.445 28.2404 122.316 27.4011C121.854 23.9765 122.02 20.5519 122.316 17.1273C121.731 18.2117 121.139 19.2164 120.511 20.2579C119.796 21.428 119.002 22.5552 117.991 23.6396C117.782 23.805 117.443 24.0133 117.154 24.0562C117.03 24.0562 116.858 24.0133 116.735 23.9275C116.611 23.8418 116.568 23.6763 116.692 23.5109C117.991 22.0468 119.002 20.46 119.926 18.8304C120.85 17.2009 121.644 15.5713 122.698 13.9845C122.907 13.6537 123.535 13.8191 123.831 13.9845C124.127 14.3215 124.084 14.7381 124.041 15.0689C123.492 19.2899 123.03 24.9261 123.874 27.7687C123.917 28.0199 124.422 28.4794 124.675 28.4794C125.18 28.5222 125.599 28.2282 126.018 27.8974C126.48 27.5237 126.813 26.9784 127.151 26.5189C127.318 26.2249 127.404 25.8941 127.527 25.6C127.65 25.3059 127.823 24.9751 128.155 24.6811C128.494 24.9751 128.494 25.2631 128.451 25.5142L128.285 26.2678C128.119 27.1009 127.57 28.0199 126.899 28.7734C126.431 29.2819 125.802 29.6985 125.131 29.87ZM126.178 5.18106C124.496 4.42753 122.778 3.96806 120.93 3.59435C120.511 3.55147 120.468 2.71829 120.887 2.38135C123.406 2.42423 125.63 3.30029 127.478 4.97277C127.73 5.18106 128.026 5.55477 127.94 6.05712C127.521 5.92847 127.225 5.76306 126.973 5.64054L126.178 5.18106Z" fill="#936969" stroke="#67571C" stroke-width="0.75" stroke-miterlimit="10"/>
<path d="M136.213 15.4977C136.09 17.6725 136.256 22.4755 136.256 24.8954C136.256 26.5679 136.342 28.2771 136.256 29.9496C136.133 31.6589 135.96 33.3742 135.461 34.9609C135.122 36.0453 134.032 38.3427 132.856 39.182C132.56 39.3902 132.307 39.3902 132.141 39.3106C131.975 39.2248 131.931 38.9737 132.055 38.8083C132.979 37.5524 133.736 36.0514 134.198 34.5505C134.66 33.0495 134.87 31.4996 134.913 29.8332C134.999 26.3657 134.87 19.4737 134.827 15.8837C133.065 16.3002 131.759 17.0538 130.164 18.0524C129.831 18.1381 129.578 17.8441 129.449 17.6358C129.449 16.968 129.825 16.5943 130.25 16.3431C131.297 15.6754 133.318 14.8361 134.827 14.3766C134.913 12.2875 134.87 10.0759 134.956 8.07263C135.042 6.65133 135.209 5.23003 135.88 4.02315C136.508 2.85303 137.642 1.97697 138.948 1.93408C139.576 2.01985 140.291 2.18526 140.796 2.7305C140.796 2.93879 140.586 3.3125 140.291 3.18997C139.872 3.06132 139.453 3.06132 139.034 3.14709C138.196 3.26961 137.396 3.98026 137.02 4.77668C136.515 5.7814 136.348 6.86575 136.348 8.03587C136.348 10.0392 136.182 12.0425 136.219 14.0519C136.977 13.9661 137.771 13.8007 138.572 13.7149C139.453 13.6292 140.334 13.6292 141.215 13.8007C141.763 14.1744 141.301 14.7625 140.962 14.8851C139.324 14.9157 137.938 15.0811 136.213 15.4977Z" fill="#936969" stroke="#67571C" stroke-width="0.75" stroke-miterlimit="10"/>
<path d="M153.178 28.32C152.044 29.1961 150.782 29.821 149.482 29.9496C148.096 30.0721 146.753 29.6127 145.872 28.6937C145.367 28.1485 145.034 27.689 144.825 27.2295C144.615 26.8558 144.492 26.4331 144.363 26.0165C144.03 26.2677 143.568 26.5189 143.272 26.5985C142.81 26.7272 142.435 26.7272 141.886 26.476C141.72 26.3106 141.554 25.9308 141.763 25.5999C142.016 25.4774 142.268 25.3917 142.521 25.3488C142.773 25.263 142.983 25.2262 143.149 25.1405C143.445 25.018 143.864 24.7239 144.196 24.5585C144.073 22.6777 144.073 20.6744 144.492 18.7936C144.788 17.3295 145.459 15.8714 146.463 14.7442C147.387 13.9906 149.149 13.4883 150.283 13.8681C151.755 14.3705 152.845 15.9143 153.43 17.2498C153.597 18.1259 153.221 18.8365 152.759 19.3818C152.383 19.7983 151.921 20.2578 151.459 20.6744L150.831 21.2564C150.664 21.4218 150.455 21.6301 150.326 21.8016C149.654 22.4265 148.853 23.0514 148.059 23.6395C147.258 24.2215 146.463 24.7668 145.749 25.2262C145.958 26.3964 146.334 27.5665 147.43 28.1914C148.441 28.7795 149.488 28.6937 150.455 28.32C151.379 27.9831 152.26 27.444 152.931 26.8558C154.188 25.7715 155.241 24.5585 155.747 23.1372C155.956 22.9289 156.338 23.3455 156.338 23.5109C156.295 24.3073 155.79 25.3059 155.371 25.9737C154.773 26.862 154.022 27.6523 153.178 28.32ZM147.387 15.9204C146.716 16.7965 146.297 17.8012 146.001 18.9284C145.582 20.3926 145.539 21.9793 145.626 23.566C146.42 23.0208 147.264 22.4388 148.102 21.8139C149.026 21.1461 149.864 20.3926 150.578 19.6452C151.127 19.1 151.921 18.518 152.051 17.6848C151.675 16.8516 151.083 15.9694 150.289 15.4303C149.445 15.124 148.059 15.2894 147.387 15.9204Z" fill="#936969" stroke="#67571C" stroke-width="0.75" stroke-miterlimit="10"/>
<path d="M170.561 29.7843C170.013 29.5331 169.385 29.1594 169.132 28.5713C168.966 28.1118 169.089 27.1071 169.175 26.6905C169.305 26.3168 169.471 25.937 169.804 25.6858C169.933 25.6001 170.056 25.6001 170.143 25.6001C170.309 25.6429 170.395 25.7655 170.395 25.8512C170.395 26.3536 170.186 26.9785 170.186 27.5237C170.229 27.9403 170.309 28.2773 170.734 28.3998C171.492 28.651 172.286 28.5284 173.044 28.3998C175.101 28.069 176.95 27.3583 178.545 25.9799C178.754 25.7716 178.798 25.4775 178.711 25.2264C178.292 24.7669 177.621 24.724 177.03 24.5586C175.853 24.2645 174.633 24.142 173.42 23.9337C172.496 23.8112 171.572 23.6029 170.777 23.1434C169.976 22.5614 169.73 21.5567 169.976 20.5949C170.691 18.7999 171.824 16.5454 173.463 15.1241C174.301 14.4134 175.311 13.8314 176.444 13.6599C176.993 13.6599 177.455 13.8253 177.917 14.1194C178.379 14.4134 178.798 15.0812 178.841 15.7061C178.841 15.9573 178.631 16.2084 178.292 16.331C178.083 16.1227 177.96 15.9144 177.787 15.7429C177.621 15.5774 177.448 15.412 177.239 15.2834C177.03 15.118 176.691 14.9893 176.401 15.0322C175.982 15.0322 175.644 15.1976 175.311 15.4488C174.177 16.282 173.124 17.5807 172.416 18.7876C171.997 19.5412 171.615 20.2886 171.405 21.085C171.282 21.379 171.362 21.7099 171.572 21.8814C171.867 22.1755 172.286 22.298 172.705 22.3838L175.73 22.8861C176.74 23.0515 177.701 23.2231 178.668 23.5539C179.216 23.7193 179.802 24.1788 180.097 24.8098C180.227 25.2264 180.35 25.8512 180.054 26.274C179.087 27.6953 177.368 28.5713 175.896 29.1166C174.258 29.7414 172.373 30.0355 170.561 29.7843Z" fill="#936969" stroke="#67571C" stroke-width="0.75" stroke-miterlimit="10"/>
<path d="M193.871 28.9081C193.2 28.6998 192.824 27.9892 192.695 27.4439C191.98 23.811 191.857 19.9269 191.395 16.2083C191.272 15.081 190.052 14.8299 189.424 15.8775C188.333 17.7582 187.243 20.3068 186.565 22.6041C185.894 24.779 185.013 26.9477 184.674 29.245C184.508 29.5391 184.046 29.9128 183.584 29.6187C183.461 29.4533 183.331 29.2022 183.245 28.951L183.036 28.1607C182.241 25.1098 182.112 21.9793 182.241 18.8855C182.364 15.2955 182.999 11.6993 183.88 8.3605C184.255 6.9392 185.099 4.77049 185.851 3.47172C186.27 2.71819 186.941 2.22196 187.865 1.88501C188.413 1.88501 188.912 2.00754 189.374 2.38737C189.67 2.68143 189.96 3.05513 189.67 3.5146C189.251 3.39208 188.832 3.22054 188.407 3.18378C188.032 3.1409 187.57 3.30631 187.44 3.47785C186.516 4.89915 185.888 6.44297 185.383 8.02968C184.797 9.86757 184.416 11.7483 184.126 13.6659C183.75 16.0858 183.535 18.763 183.578 21.3911C183.578 22.1018 183.744 25.1894 184.04 26.4882C184.459 24.3195 185.173 22.3958 185.931 20.3497C186.522 18.8426 187.231 17.1762 187.988 15.7978C188.155 15.467 188.284 15.2158 188.45 14.9646C188.58 14.7135 188.746 14.4623 188.956 14.2969C189.331 13.8803 189.793 13.672 190.551 13.672C191.309 13.672 192.103 14.0886 192.522 14.9218C192.861 15.5466 192.898 16.386 192.984 17.0905C193.28 20.221 193.489 23.8539 194.161 27.156C194.247 27.3214 194.37 27.3643 194.413 27.3214C195.208 26.4453 195.756 25.5693 196.305 24.6074C196.81 23.6885 197.315 22.7267 197.857 21.722C197.986 21.5137 198.196 21.5994 198.319 21.6791C198.448 21.7648 198.528 21.9302 198.528 22.1814C197.771 24.2276 196.933 26.3596 195.67 27.9463C195.337 28.3629 194.629 29.1593 193.871 28.9081Z" fill="#936969" stroke="#67571C" stroke-width="0.75" stroke-miterlimit="10"/>
<path d="M203.105 29.9497C201.806 29.6985 200.5 28.6142 200.038 27.3583C199.28 25.2264 199.323 23.1005 199.914 21.0911C200.543 19.0449 201.719 17.1213 203.358 15.5774C204.325 14.6585 205.415 13.8253 206.678 13.5313C206.931 13.4884 207.35 13.617 207.473 13.905C208.021 13.9907 208.52 14.2358 208.945 14.5298C209.703 15.0751 210.288 15.8654 210.627 16.6189C211.508 18.4997 211.717 20.5888 211.341 22.6349C210.966 24.6015 210.042 26.4761 208.699 27.9403C207.227 29.4903 205.335 30.3296 203.105 29.9497ZM206.512 15.0016C206.302 15.167 206.093 15.2956 205.884 15.4182L205.298 15.7919C203.327 17.0416 202.151 19.0082 201.436 21.0972C200.888 22.7697 200.808 24.6444 201.227 26.5251C201.479 27.5298 202.446 28.2772 203.407 28.4855C204.793 28.8225 206.136 28.363 207.103 27.5237C208.576 26.274 209.456 24.6444 209.832 22.8432C210.165 21.4219 210.165 19.8781 209.918 18.4139C209.709 17.1213 208.828 16.0308 207.695 15.1976C207.263 14.7933 206.845 14.7933 206.512 15.0016Z" fill="#936969" stroke="#67571C" stroke-width="0.75" stroke-miterlimit="10"/>
<path d="M220.323 28.6999C219.06 29.4963 217.551 29.9558 215.955 29.8271C215.832 31.5363 215.869 33.3742 215.746 35.1325C215.66 36.4251 215.45 37.7239 215.031 38.8511C214.822 39.2248 214.274 39.6414 213.812 39.5618C214.144 37.9751 214.274 36.4313 214.36 34.8445C214.489 32.9638 214.489 31.1259 214.526 29.2084L213.855 28.706C213.602 28.5406 213.393 28.2894 213.226 27.9953C213.103 27.8299 213.356 27.3705 213.645 27.493C213.941 27.5788 214.193 27.7871 214.446 27.9525L214.532 27.9953C214.662 25.6551 214.409 20.6009 214.113 17.1334C213.99 16.8822 213.99 16.4657 214.027 16.1716C214.28 15.7979 214.612 15.8775 214.908 16.0858C215.031 16.1287 215.241 16.337 215.37 16.5024C216.165 15.5406 217.218 14.7074 218.352 14.1622C219.405 13.6598 220.618 13.4086 221.838 13.6598C222.885 13.911 223.809 14.5788 224.444 15.5406C225.202 16.7107 225.534 18.0462 225.534 19.3818C225.534 21.5505 224.777 23.7682 223.6 25.4774C222.719 26.7762 221.629 27.9035 220.323 28.6999ZM221.629 15.0382C220.495 14.7871 219.485 15.0382 218.524 15.5406C217.391 16.1655 216.467 17.2131 215.666 18.3403C215.832 21.7649 216.005 25.0241 216.005 28.4916C218.863 28.6202 221.253 26.5679 222.682 24.3134C223.563 22.935 224.154 21.0114 224.111 19.2164C224.111 18.0034 223.772 16.8761 223.101 15.9572C222.719 15.4609 222.214 15.1669 221.629 15.0382Z" fill="#936969" stroke="#67571C" stroke-width="0.75" stroke-miterlimit="10"/>
<path d="M109.977 4.64795L107.267 13.8006L105.443 21.4034" stroke="#67571C" stroke-miterlimit="10" stroke-linecap="round"/>
<path d="M105.72 13.9905L106.644 16.5696" stroke="#67571C" stroke-miterlimit="10" stroke-linecap="round"/>
<path d="M109.41 12.9246L107.291 14.7073" stroke="#67571C" stroke-miterlimit="10" stroke-linecap="round"/>
<path d="M106.632 8.87524L107.772 11.3686" stroke="#67571C" stroke-miterlimit="10" stroke-linecap="round"/>
<g clip-path="url(#clip0_12_1567)">
<path d="M17.9439 8.59671C19.8856 5.1019 22.9415 2.68425 24.4057 1.66294C24.7718 1.40761 25.2095 1.67889 25.1538 2.11774C24.9469 3.86515 24.9946 8.32542 23.0767 11.7963C20.4586 16.5199 16.6467 19.0811 15.4212 18.4029C14.1957 17.7167 15.3257 13.3283 17.9439 8.59671Z" fill="#D5F671"/>
<path d="M23.8329 23.1985C27.4696 21.5548 31.3611 21.4351 33.1437 21.491C33.5813 21.5069 33.7803 21.9777 33.4779 22.3048C32.2762 23.5815 29.666 27.196 26.0611 28.8397C21.1431 31.0738 16.5673 30.8504 15.9863 29.5737C15.4054 28.2891 18.9228 25.4406 23.8408 23.2065L23.8329 23.1985Z" fill="#F9ED58"/>
<path d="M4.93264 16.3844C2.66462 13.0971 1.86087 9.27513 1.5903 7.50378C1.52664 7.06494 1.95637 6.78567 2.33039 7.03302C3.80261 7.9905 7.81341 9.92143 10.0655 13.1848C13.1373 17.6371 13.7341 22.1852 12.5882 22.9911C11.4343 23.789 8.0044 20.8288 4.93264 16.3844Z" fill="#D5F671"/>
<path d="M15.3656 31.2413C15.0871 31.4887 14.8563 31.6802 14.6335 31.8797C13.766 34.0579 13.8297 36.308 14.0048 38.5741C14.0525 39.1964 14.2594 39.8268 13.9809 40.513C13.3841 39.5714 13.1692 37.7682 13.4 34.9117C13.5512 33.0047 13.8377 31.1137 14.0605 29.2147C13.4398 28.4407 13.3681 27.3955 12.5724 26.6853C11.7209 26.5975 10.8694 26.3183 10.0179 26.0071C7.8135 25.1932 6.06276 23.7969 4.86906 21.7862C2.84775 18.3632 1.61427 14.6529 0.969674 10.7432C0.90601 10.3602 0.810515 9.94533 1.00151 9.57031C1.28799 9.28307 1.56652 9.42669 1.82913 9.55435C3.0467 10.1687 4.19264 10.8869 5.22717 11.7885C8.27506 14.4535 10.559 17.661 12.0392 21.4351C12.3336 22.1851 12.6281 22.9352 12.7236 23.749C12.8111 24.4991 12.9066 25.2411 13.018 26.1108C13.3045 26.5577 13.6467 27.1002 14.0525 27.7465C14.5778 26.6773 14.4663 25.6002 14.7369 24.6028C14.9995 23.6294 15.1826 22.64 15.4054 21.6745C14.148 17.31 14.8642 13.2167 16.981 9.29105C18.1907 7.04894 19.7345 5.0861 21.6842 3.44242C22.8063 2.5009 24.0318 1.74289 25.3528 1.28809C25.6632 1.43969 25.687 1.63118 25.6472 1.83066C25.3051 3.86531 24.9629 5.89996 24.6207 7.93461C24.1034 10.9666 22.7983 13.6875 21.1828 16.2567C20.0369 18.0919 18.7159 19.8154 17.1959 21.3633C16.7741 21.7942 16.3205 22.1851 15.7794 22.6958C15.0154 25.1294 14.8006 27.7784 14.53 30.6748C15.6123 29.6535 16.4877 28.7838 17.4187 27.962C18.3657 27.1242 19.4241 26.438 20.5542 25.8794C21.7319 25.3049 22.9495 24.8422 24.1989 24.4432C25.3926 24.0522 26.6102 23.749 27.8675 23.6134C29.109 23.4777 30.3424 23.2703 31.5361 23.5416C31.8226 23.9166 31.6316 24.1639 31.4565 24.4113C28.8941 28.1614 25.3687 30.3317 20.8645 30.8743C19.9175 30.986 18.9705 31.1057 18.0076 30.986C17.1482 30.8743 16.3126 31.1296 15.3656 31.2413ZM16.2171 21.491C21.6603 16.1849 24.5093 9.82564 24.7719 2.16578C23.7135 2.57271 22.8699 3.17911 22.0662 3.84935C19.4798 5.97975 17.6734 8.67666 16.432 11.7566C15.5168 14.0306 15.1826 16.4163 15.3576 18.8659C15.4213 19.7675 15.5884 20.6372 16.225 21.491H16.2171ZM1.63814 10.3203C1.46307 10.5438 1.52673 10.8071 1.56652 11.0464C2.17928 14.3817 3.26156 17.5653 4.82132 20.5814C5.09984 21.116 5.44204 21.6186 5.78423 22.1133C7.28032 24.2437 9.41305 25.3847 11.88 25.9752C11.9596 25.9991 12.071 25.9273 12.1506 25.9034C12.3654 25.7039 12.3654 25.4486 12.3416 25.1932C12.2461 24.1879 12.0949 23.1985 11.7447 22.241C10.2805 18.2276 7.92491 14.8365 4.68603 12.0677C3.9539 11.4454 3.17402 10.9028 2.32252 10.456C2.10766 10.3443 1.90075 10.1927 1.63018 10.3203H1.63814ZM15.7953 30.5551C16.7423 30.4355 17.4824 30.3397 18.2225 30.3956C19.6867 30.4993 21.1192 30.2918 22.5436 29.9807C25.8223 29.2625 28.4087 27.4832 30.4141 24.8262C30.5812 24.6108 30.8517 24.3794 30.605 24.0443C26.268 23.6932 18.5488 26.3821 15.7874 30.5551H15.7953Z" fill="#231815" stroke="#67571C" stroke-linecap="round" stroke-linejoin="round"/>
</g>
<defs>
<clipPath id="clip0_12_1567">
<rect width="33.1289" height="40.0308" fill="white" transform="translate(0.492188 0.881104)"/>
</clipPath>
</defs>
</svg>
